<?xml version="1.0" standalone="no"?>
<!DOCTYPE svg PUBLIC "-//W3C//DTD SVG 20010904//EN"
 "http://www.w3.org/TR/2001/REC-SVG-20010904/DTD/svg10.dtd">
<svg version="1.0" xmlns="http://www.w3.org/2000/svg"
 width="1024.000000pt" height="1024.000000pt" viewBox="0 0 1024.000000 1024.000000"
 preserveAspectRatio="xMidYMid meet">
<metadata>
Created by potrace 1.14, written by Peter Selinger 2001-2017
</metadata>
<g transform="translate(0.000000,1024.000000) scale(0.100000,-0.100000)"
fill="#000000" stroke="none">
<path d="M5118 10235 c-2 -1 -34 -5 -73 -9 -76 -7 -124 -13 -225 -31 -187 -32
-482 -124 -710 -220 -257 -108 -668 -323 -867 -451 -28 -19 -54 -34 -58 -34
-3 0 -18 -9 -33 -19 -15 -10 -97 -65 -182 -121 -298 -198 -631 -452 -890 -679
-137 -121 -202 -182 -375 -356 -215 -215 -256 -259 -380 -405 -44 -52 -83 -97
-86 -100 -18 -15 -241 -318 -294 -400 -87 -133 -164 -277 -233 -430 -46 -102
-123 -349 -138 -440 -2 -14 -7 -36 -10 -50 -3 -13 -8 -40 -10 -60 -3 -19 -7
-46 -9 -60 -31 -214 -26 -673 10 -908 3 -18 7 -52 10 -75 3 -23 7 -53 10 -67
6 -30 25 -136 31 -170 28 -155 138 -531 222 -755 156 -415 446 -929 706 -1251
23 -28 52 -65 66 -84 27 -35 35 -45 113 -134 227 -261 501 -518 727 -685 30
-22 64 -48 75 -57 42 -34 334 -224 430 -279 118 -68 343 -182 435 -220 192
-80 272 -131 305 -195 29 -56 20 -196 -22 -350 -8 -30 -18 -68 -22 -85 -13
-49 -80 -211 -118 -283 -46 -89 -131 -216 -196 -294 -61 -74 -208 -219 -254
-251 -72 -48 -66 -161 10 -207 59 -37 111 -23 203 55 139 118 283 284 382 442
51 81 164 303 155 303 -3 0 -1 6 5 12 17 22 80 229 102 337 75 368 -9 545
-326 692 -98 45 -157 72 -164 73 -3 1 -61 29 -130 63 -130 64 -239 125 -373
209 -43 27 -86 54 -95 59 -32 19 -77 50 -82 55 -3 3 -45 34 -95 70 -101 72
-95 68 -185 142 -139 113 -194 163 -335 303 -124 123 -250 262 -340 375 -33
41 -63 77 -66 80 -16 12 -217 298 -254 362 -5 9 -36 59 -67 110 -130 213 -248
453 -341 688 -75 190 -168 492 -202 650 -34 162 -46 221 -49 250 -3 19 -7 49
-10 65 -2 17 -8 54 -11 84 -4 30 -9 63 -11 74 -9 48 -19 263 -18 407 1 213 15
360 49 520 3 14 7 34 9 45 2 11 18 65 34 120 134 449 436 888 992 1445 230
230 274 272 445 420 330 286 699 553 1088 788 92 56 169 102 171 102 3 0 40
21 83 46 160 96 625 320 698 339 6 1 17 5 25 8 20 9 183 62 245 80 64 19 218
54 270 62 23 3 52 8 65 10 104 21 410 27 545 11 78 -9 241 -40 295 -56 19 -6
42 -13 50 -15 71 -17 249 -89 383 -156 513 -257 854 -561 1017 -904 54 -115
143 -385 166 -505 3 -14 7 -33 10 -42 5 -19 12 -49 19 -93 3 -16 8 -41 10 -55
10 -50 13 -66 24 -140 6 -41 13 -99 16 -127 3 -29 7 -74 10 -100 7 -73 15
-245 20 -483 7 -278 14 -456 20 -500 2 -19 7 -54 10 -77 9 -74 44 -227 69
-295 98 -268 266 -460 518 -587 93 -48 201 -84 283 -96 22 -4 47 -8 55 -10 8
-3 38 -5 66 -6 l52 -2 1 -91 c2 -89 4 -116 16 -226 8 -71 35 -242 40 -250 2
-3 6 -26 10 -50 3 -25 18 -85 32 -135 14 -49 27 -99 29 -109 5 -27 114 -343
132 -386 9 -19 16 -37 17 -40 6 -21 178 -424 275 -645 267 -610 341 -882 335
-1230 -2 -71 -6 -145 -9 -162 -3 -18 -8 -45 -11 -60 -11 -65 -48 -189 -67
-227 -50 -99 -246 -254 -429 -340 -129 -60 -315 -119 -439 -140 -19 -3 -71
-13 -115 -21 -44 -9 -98 -18 -120 -20 -22 -3 -53 -7 -70 -9 -30 -4 -132 -16
-190 -22 -238 -24 -600 -33 -775 -20 -47 4 -108 9 -136 11 -28 2 -69 6 -92 9
-23 3 -61 9 -84 12 -24 3 -77 12 -118 21 -41 8 -86 17 -100 20 -192 35 -505
146 -733 259 -381 190 -544 345 -658 631 -46 117 -103 346 -125 503 -3 25 -7
54 -9 65 -2 11 -6 38 -9 60 -3 22 -13 90 -22 150 -9 61 -18 121 -19 135 -2 14
-6 40 -9 58 -3 17 -8 47 -11 65 -43 254 -125 490 -235 672 -144 238 -376 464
-678 660 -40 25 -72 48 -72 51 0 3 3 3 8 1 4 -3 41 -8 82 -11 41 -4 89 -9 105
-11 17 -2 66 -7 110 -10 44 -4 83 -9 86 -11 3 -2 23 6 45 16 88 44 100 155 23
212 -24 18 -95 32 -219 42 -81 7 -174 17 -205 21 -17 2 -60 7 -95 10 -91 7
-182 17 -200 20 -8 2 -49 6 -90 9 -41 4 -92 9 -114 11 -79 8 -138 -45 -143
-129 -4 -63 10 -106 43 -137 66 -62 192 -271 228 -379 23 -70 44 -160 51 -215
14 -114 28 -146 76 -171 88 -45 195 29 184 127 -5 45 -15 116 -21 154 -3 17
-16 67 -29 111 -25 82 -31 118 -17 99 4 -5 47 -37 95 -69 49 -32 94 -64 100
-70 7 -6 44 -36 82 -67 164 -132 310 -306 388 -462 72 -145 133 -332 152 -467
4 -24 8 -47 10 -50 5 -7 32 -175 39 -242 3 -26 8 -58 10 -70 3 -13 8 -45 11
-73 3 -27 8 -57 10 -65 2 -8 6 -35 9 -60 3 -25 8 -55 10 -66 2 -12 7 -38 10
-58 21 -133 67 -308 113 -431 100 -269 266 -470 533 -645 95 -63 350 -192 490
-249 162 -65 453 -155 565 -174 17 -3 55 -11 85 -17 30 -6 73 -13 95 -16 22
-3 51 -7 65 -10 13 -3 49 -8 80 -10 30 -3 66 -7 80 -10 130 -21 741 -21 857 0
10 2 54 7 98 11 71 6 174 18 245 30 14 2 61 9 105 15 104 15 114 16 205 35 14
2 40 7 57 10 47 8 260 73 307 94 23 10 51 22 64 26 13 4 75 36 137 71 267 151
425 305 490 478 26 68 53 175 61 241 3 22 8 47 11 55 10 28 12 384 2 450 -5
36 -12 83 -15 105 -32 227 -119 485 -321 945 -157 359 -243 558 -253 590 -5
14 -27 72 -50 130 -76 194 -173 521 -195 657 -27 170 -36 252 -41 371 l-7 138
44 13 c155 45 335 156 456 280 54 56 143 171 143 186 0 5 6 16 13 24 8 9 26
48 40 87 91 251 15 525 -173 625 -37 19 -60 24 -125 24 -68 0 -88 -5 -136 -28
-49 -26 -105 -72 -165 -139 -40 -44 -132 -194 -172 -278 -55 -116 -100 -243
-117 -330 -2 -8 -10 -49 -18 -90 -8 -41 -18 -92 -22 -114 l-6 -38 -69 6 c-37
4 -101 16 -141 27 -75 20 -239 96 -239 110 0 4 -8 10 -19 14 -30 9 -144 128
-193 201 -57 87 -120 246 -133 339 -2 11 -6 40 -9 65 -14 92 -17 151 -21 390
-5 261 -13 502 -19 560 -2 19 -7 73 -11 120 -3 47 -8 94 -11 105 -2 11 -6 43
-9 70 -10 93 -12 110 -24 175 -146 807 -390 1203 -986 1595 -388 255 -781 420
-1101 460 -27 4 -60 9 -74 12 -27 5 -416 13 -422 8z m4176 -3551 c27 -56 31
-181 7 -243 -55 -144 -212 -303 -379 -384 -61 -29 -60 -29 -37 73 61 259 216
554 318 604 40 19 63 6 91 -50z"/>
</g>
</svg>
